# xmcd CD database file
#
# Track frame offsets:
#	150
#	15059
#	28724
#	41638
#	48570
#	66148
#	80560
#	92611
#	107157
#	119766
#	132790
#	146685
#
# Disc length: 2121 seconds
#
# Revision: 0
# Processed by: cddbd v1.5.2PL0 Copyright (c) Steve Scherf et al.
# Submitted via: CDex 1.70beta3
#
DISCID=9f08470c
DTITLE=The CD 200 - JAZZ STANDARD SONG 50's Vol.1
DYEAR=1950
DGENRE=Jazz
TTITLE0=Billie Holiday/As time goes by
TTITLE1=Frank Sinatra/All of me
TTITLE2=Andrews Sisters/Beer barrel polka
TTITLE3=Xavier Cugat/Dark eyes
TTITLE4=Lena Horne/Honey suckle rose room
TTITLE5=Sarah Vaugham/It might as well be spring
TTITLE6=Nat King Cole/Katusha
TTITLE7=Glenn Miller And Army Force Band/Poinciana
TTITLE8=Xavier Cugat/Rain in spain
TTITLE9=Frank Sinatra/The song is you
TTITLE10=Dinah Shore/Blues in the night
TTITLE11=Frank Sinatra/Night and day
EXTD=YEAR: 1950
EXTT0=
EXTT1=
EXTT2=
EXTT3=
EXTT4=
EXTT5=
EXTT6=
EXTT7=
EXTT8=
EXTT9=
EXTT10=
EXTT11=
PLAYORDER=
